<?xml version="1.0" standalone="no"?><!DOCTYPE svg PUBLIC "-//W3C//DTD SVG 1.1//EN" "http://www.w3.org/Graphics/SVG/1.1/DTD/svg11.dtd"><svg class="icon" width="200px" height="200.00px" viewBox="0 0 1024 1024" version="1.1" xmlns="http://www.w3.org/2000/svg"><path d="M512 832c-176.448 0-320-143.552-320-320S335.552 192 512 192s320 143.552 320 320-143.552 320-320 320m0-704C300.256 128 128 300.256 128 512s172.256 384 384 384 384-172.256 384-384S723.744 128 512 128" fill="#3E3A39" /><path d="M700.64 580.288a32 32 0 0 0-43.712 11.68A160.608 160.608 0 0 1 518.304 672a160.576 160.576 0 0 1-138.592-80 32 32 0 0 0-55.424 32.032 224.896 224.896 0 0 0 194.016 112 224.768 224.768 0 0 0 194.016-112 32 32 0 0 0-11.68-43.744M384 512a32 32 0 0 0 32-32v-96a32 32 0 0 0-64 0v96a32 32 0 0 0 32 32M640 512a32 32 0 0 0 32-32v-96a32 32 0 0 0-64 0v96a32 32 0 0 0 32 32" fill="#3E3A39" /></svg>