<?xml version="1.0" standalone="no"?><!DOCTYPE svg PUBLIC "-//W3C//DTD SVG 1.1//EN" "http://www.w3.org/Graphics/SVG/1.1/DTD/svg11.dtd"><svg t="1764170312532" class="icon" viewBox="0 0 1024 1024" version="1.1" xmlns="http://www.w3.org/2000/svg" p-id="1650" xmlns:xlink="http://www.w3.org/1999/xlink" width="200" height="200"><path d="M512 28c267.306 0 484 216.694 484 484 0 267.306-216.694 484-484 484-267.306 0-484-216.694-484-484C28 244.694 244.694 28 512 28zM262.538 472.67l-0.644 0.006c-21.242 0.33-38.367 17.646-38.38 38.97-0.014 21.323 17.088 38.661 38.33 39.019l0.645 0.006 500 0.32 0.644-0.005c21.242-0.331 38.367-17.647 38.38-38.97 0.014-21.324-17.088-38.662-38.33-39.02l-0.645-0.005-500-0.32z" fill="#000000" p-id="1651"></path></svg>