<?xml version="1.0" standalone="no"?><!DOCTYPE svg PUBLIC "-//W3C//DTD SVG 1.1//EN" "http://www.w3.org/Graphics/SVG/1.1/DTD/svg11.dtd"><svg class="icon" width="200px" height="200.00px" viewBox="0 0 1024 1024" version="1.1" xmlns="http://www.w3.org/2000/svg"><path d="M665.6 133.12h-307.2A215.28576 215.28576 0 0 0 143.36 348.16V655.36a215.28576 215.28576 0 0 0 215.04 215.04h184.32c3.2768 0 6.5536-0.53248 9.70752-1.55648 100.7616-33.5872 293.02784-225.93536 326.656-326.656A31.08864 31.08864 0 0 0 880.64 532.48V348.16a215.28576 215.28576 0 0 0-215.04-215.04z m-122.88 673.62816V686.08A153.6 153.6 0 0 1 696.32 532.48h120.66816c-35.59424 82.7392-191.52896 238.71488-274.26816 274.26816z" /></svg>