<?xml version="1.0" standalone="no"?><!DOCTYPE svg PUBLIC "-//W3C//DTD SVG 1.1//EN" "http://www.w3.org/Graphics/SVG/1.1/DTD/svg11.dtd"><svg class="icon" width="200px" height="200.00px" viewBox="0 0 1024 1024" version="1.1" xmlns="http://www.w3.org/2000/svg"><path d="M672 128H352a224.224 224.224 0 0 0-224 224v320a224.256 224.256 0 0 0 224 224h192c3.456 0 6.848-0.544 10.112-1.632 104.928-35.008 305.248-235.328 340.256-340.256 1.088-3.264 1.6-6.656 1.632-10.112v-192a224.256 224.256 0 0 0-224-224zM192 672V352a160 160 0 0 1 160-160h320a160 160 0 0 1 160 160v160h-96a224.256 224.256 0 0 0-224 224v96h-160a160 160 0 0 1-160-160z m384 140.544V736a160 160 0 0 1 160-160h76.544c-48.544 78.016-158.528 188-236.544 236.544z" /></svg>