<?xml version="1.0" standalone="no"?><!DOCTYPE svg PUBLIC "-//W3C//DTD SVG 1.1//EN" "http://www.w3.org/Graphics/SVG/1.1/DTD/svg11.dtd"><svg class="icon" width="200px" height="200.00px" viewBox="0 0 1024 1024" version="1.1" xmlns="http://www.w3.org/2000/svg"><path d="M544 896H352c-123.6 0-224-100.4-224-224V352c0-123.6 100.4-224 224-224h320c123.6 0 224 100.4 224 224v192c0 3.6-0.4 6.8-1.6 10-34.8 104.8-235.2 305.2-340.4 340.4-3.2 1.2-6.4 1.6-10 1.6zM352 192c-88.4 0-160 71.6-160 160v320c0 88.4 71.6 160 160 160h186.4c86.4-32.8 260.8-207.2 293.6-293.6V352c0-88.4-71.6-160-160-160H352z"  /><path d="M544 896c-17.6 0-32-14.4-32-32v-128c0-123.6 100.4-224 224-224h128c17.6 0 32 14.4 32 32s-14.4 32-32 32h-128c-88.4 0-160 71.6-160 160v128c0 17.6-14.4 32-32 32z"  /></svg>