<?xml version="1.0" standalone="no"?><!DOCTYPE svg PUBLIC "-//W3C//DTD SVG 1.1//EN" "http://www.w3.org/Graphics/SVG/1.1/DTD/svg11.dtd"><svg t="1759853361725" class="icon" viewBox="0 0 1024 1024" version="1.1" xmlns="http://www.w3.org/2000/svg" p-id="1648" xmlns:xlink="http://www.w3.org/1999/xlink" width="200" height="200"><path d="M857.6 281.6h-192V217.6A92.928 92.928 0 0 0 569.6 128H454.4a92.928 92.928 0 0 0-96 89.472V281.6h-192a38.4 38.4 0 1 0 0 76.8h38.4v422.4A115.2 115.2 0 0 0 320 896h384a115.2 115.2 0 0 0 115.2-115.2V358.4h38.4a38.4 38.4 0 0 0 0-76.8zM435.2 217.6c0-6.144 8.064-12.672 19.2-12.672h115.2c11.136 0 19.2 6.528 19.2 12.672V281.6H435.2V217.536z m307.2 563.264a38.4 38.4 0 0 1-38.4 38.4H320a38.4 38.4 0 0 1-38.4-38.4V358.4h460.8v422.4z" fill="#000000" p-id="1649"></path><path d="M416 704c8.512 0 16.64-4.48 22.656-12.48A50.752 50.752 0 0 0 448 661.312V490.688a50.752 50.752 0 0 0-9.344-30.208A28.608 28.608 0 0 0 416 448c-8.512 0-16.64 4.48-22.656 12.48A50.752 50.752 0 0 0 384 490.688v170.624c0 11.328 3.392 22.208 9.344 30.208 6.016 8 14.144 12.48 22.656 12.48zM608 704c8.512 0 16.64-4.48 22.656-12.48a50.752 50.752 0 0 0 9.344-30.208V490.688a50.752 50.752 0 0 0-9.344-30.208A28.608 28.608 0 0 0 608 448c-8.512 0-16.64 4.48-22.656 12.48A50.752 50.752 0 0 0 576 490.688v170.624c0 11.328 3.392 22.208 9.344 30.208 6.016 8 14.144 12.48 22.656 12.48z" fill="#000000" p-id="1650"></path></svg>